<svg width="257" height="271" viewBox="0 0 257 271" fill="none" xmlns="http://www.w3.org/2000/svg">
<defs>
<linearGradient id="paint0_linear_1_17" x1="222.314" y1="54.8567" x2="100.904" y2="142.163" gradientUnits="userSpaceOnUse">
<stop stop-color="white"/>
<stop offset="1" stop-color="white" stop-opacity="0"/>
</linearGradient>
<linearGradient id="paint1_linear_1_17" x1="24453.4" y1="11255.5" x2="52296.3" y2="11255.5" gradientUnits="userSpaceOnUse">
<stop stop-color="white"/>
<stop offset="1" stop-color="white"/>
</linearGradient>
<linearGradient id="paint2_linear_1_17" x1="24255.3" y1="11694.9" x2="52094" y2="12180.8" gradientUnits="userSpaceOnUse">
<stop stop-color="white"/>
<stop offset="1" stop-color="white"/>
</linearGradient>
<clipPath id="clip0_1_17">
<rect width="257" height="271" fill="white"/>
</clipPath>
</defs>
<g clip-path="url(#clip0_1_17)">
<path opacity="0.04" d="M244.497 45.3378C265.237 102.32 217.099 228.761 160.423 249.389C90.9796 284.099 40.9898 240.547 20.25 183.564C-7.27322 107.945 11.9654 45.7869 68.6411 25.1586C125.317 4.53038 223.758 -11.6444 244.497 45.3378Z" fill="#6E44FF"/>
<path opacity="0.6" d="M216.03 199.451C216.03 195.12 212.584 191.576 208.256 191.454L102.572 188.466C98.1219 188.34 94.4251 191.872 94.3474 196.323L94.0235 214.876C93.9504 219.069 97.1283 222.607 101.306 222.983L207.313 232.52C211.995 232.941 216.03 229.253 216.03 224.552L216.03 199.451Z" fill="#F2F2F2"/>
<path d="M211.778 195.66C211.778 191.278 208.253 187.711 203.871 187.66L100.314 186.454C95.8591 186.402 92.2203 189.998 92.2203 194.453V212.394C92.2203 216.561 95.418 220.03 99.5706 220.368L203.128 228.807C207.787 229.186 211.778 225.507 211.778 220.833V195.66Z" fill="white"/>
<path d="M103.542 198.566C103.542 197.423 104.498 196.513 105.639 196.568L115.502 197.047C116.57 197.099 117.408 197.981 117.405 199.05L117.378 209.403C117.375 210.569 116.379 211.485 115.216 211.391L105.38 210.592C104.342 210.508 103.542 209.641 103.542 208.599L103.542 198.566Z" fill="#BDBDBD"/>
<path d="M197.878 204.798C197.878 205.369 197.401 205.824 196.83 205.797L125.359 202.369C124.826 202.343 124.407 201.904 124.407 201.37V199.008C124.407 198.44 124.879 197.986 125.447 198.009L196.919 200.899C197.455 200.921 197.878 201.362 197.878 201.899V204.798Z" fill="#E0E0E0"/>
<path d="M197.822 215.18C197.812 215.751 197.327 216.197 196.757 216.16L125.356 211.486C124.824 211.451 124.412 211.004 124.422 210.47L124.463 208.109C124.473 207.541 124.953 207.095 125.52 207.128L196.931 211.265C197.467 211.296 197.882 211.744 197.873 212.281L197.822 215.18Z" fill="#F2F2F2"/>
<path d="M218.384 86.4282C218.384 81.478 213.934 77.716 209.053 78.5397L46.5663 105.962C42.7162 106.612 39.8976 109.946 39.8976 113.851V163.501C39.8976 167.971 43.5606 171.574 48.03 171.5L210.516 168.809C214.882 168.737 218.384 165.177 218.384 160.81V86.4282Z" fill="white"/>
<path d="M38 112.176C38 108.265 40.8264 104.928 44.6832 104.285L203.852 77.7237C208.729 76.9099 213.169 80.6704 213.169 85.6146V154.719C213.169 159.039 209.74 162.578 205.423 162.715L46.2541 167.774C41.7385 167.918 38 164.296 38 159.778V112.176Z" fill="#5B3FFF"/>
<path d="M38 112.176C38 108.265 40.8264 104.928 44.6832 104.285L203.852 77.7237C208.729 76.9099 213.169 80.6704 213.169 85.6146V154.719C213.169 159.039 209.74 162.578 205.423 162.715L46.2541 167.774C41.7385 167.918 38 164.296 38 159.778V112.176Z" fill="url(#paint0_linear_1_17)"/>
<path d="M54.9047 125.376C54.9134 124.379 55.6556 123.54 56.6444 123.41L74.8603 121.02C76.0649 120.862 77.131 121.805 77.1204 123.02L76.9518 142.336C76.9429 143.364 76.1566 144.217 75.1332 144.311L56.9239 145.968C55.7457 146.075 54.7324 145.142 54.7427 143.959L54.9047 125.376Z" fill="white"/>
<path opacity="0.6" d="M190.926 114.277C190.926 114.786 190.543 115.215 190.037 115.271L87.2855 126.677C86.6932 126.743 86.1752 126.279 86.1752 125.683V121.17C86.1752 120.665 86.5518 120.24 87.0531 120.178L189.804 107.537C190.401 107.463 190.926 107.928 190.926 108.529V114.277Z" fill="url(#paint1_linear_1_17)"/>
<path opacity="0.6" d="M190.968 131.894C190.959 132.403 190.568 132.825 190.061 132.872L87.1261 142.483C86.5327 142.539 86.0229 142.066 86.0333 141.47L86.1121 136.958C86.1209 136.453 86.5049 136.034 87.0071 135.981L189.963 125.135C190.561 125.072 191.079 125.546 191.068 126.147L190.968 131.894Z" fill="url(#paint2_linear_1_17)"/>
<path opacity="0.6" d="M216.353 29.6588C216.444 24.47 211.646 20.5696 206.585 21.7172L100.562 45.7574C96.9689 46.5722 94.3968 49.7358 94.3325 53.4198L93.9943 72.7983C93.9055 77.8833 98.5218 81.7593 103.515 80.7919L209.476 60.2623C213.187 59.5435 215.888 56.3265 215.954 52.548L216.353 29.6588Z" fill="#F2F2F2"/>
<path d="M212.023 28.1795C212.114 22.978 207.294 19.0748 202.225 20.2448L98.2643 44.2404C94.736 45.0548 92.1947 48.1375 92.0683 51.7562L91.4198 70.3279C91.24 75.4759 95.9015 79.4496 100.956 78.4572L205.18 57.9955C208.881 57.2689 211.571 54.056 211.637 50.2849L212.023 28.1795Z" fill="white"/>
<path d="M101.734 55.4897C101.75 54.5646 102.399 53.7713 103.302 53.5717L113.594 51.298C114.857 51.0192 116.048 51.9932 116.026 53.2859L115.835 64.1793C115.819 65.1032 115.172 65.8958 114.27 66.0966L103.978 68.3878C102.714 68.669 101.521 67.6947 101.543 66.4007L101.734 55.4897Z" fill="#BDBDBD"/>
<path d="M198.263 37.8006C198.239 38.2542 197.913 38.6348 197.468 38.7273L122.608 54.3056C121.966 54.4392 121.371 53.9291 121.405 53.2742L121.521 51.0705C121.544 50.6195 121.867 50.2403 122.309 50.1453L197.198 34.0183C197.842 33.8797 198.442 34.3905 198.407 35.0482L198.263 37.8006Z" fill="#E0E0E0"/>
<path d="M198.263 47.5385C198.24 47.992 197.913 48.3726 197.469 48.4651L122.608 64.0435C121.966 64.1771 121.371 63.667 121.406 63.0121L121.521 60.8084C121.545 60.3574 121.868 59.9782 122.309 59.8832L197.198 43.76C197.842 43.6214 198.442 44.1323 198.407 44.79L198.263 47.5385Z" fill="#F2F2F2"/>
</g>

</svg>
