<svg width="28" height="28" viewBox="0 0 28 28" fill="none" xmlns="http://www.w3.org/2000/svg">
<g clip-path="url(#clip0_2_96)">
<path d="M11.6926 19.1138C7.30842 19.1138 3.74179 22.6804 3.74179 27.0646C3.74179 27.5813 4.16053 28 4.67716 28H18.7084C19.225 28 19.6438 27.5813 19.6435 27.0646C19.6435 22.6804 16.0768 19.1138 11.6926 19.1138ZM5.6846 26.1292C6.13577 23.2192 8.6582 20.9845 11.6929 20.9845C14.7277 20.9845 17.2501 23.2192 17.7013 26.1292H5.6846Z" fill="#606060"/>
<path d="M25.5118 2.08278C24.2194 0.790092 22.4952 0.0782318 20.6568 0.0782318C18.8188 0.0782318 17.0948 0.790092 15.8021 2.08278C13.1251 4.75987 13.1251 9.11602 15.8021 11.7931C15.9774 11.9687 16.2153 12.0672 16.4635 12.0672C16.7116 12.0672 16.9493 11.9687 17.1248 11.7928L25.5119 3.4055C25.8773 3.0403 25.8773 2.44787 25.5118 2.08278ZM16.5255 9.74672C15.2035 7.80359 15.4031 5.12742 17.1248 3.40571C18.0643 2.46658 19.3183 1.94929 20.6569 1.94929C21.6761 1.94929 22.6462 2.24892 23.4659 2.8064L16.5255 9.74672Z" fill="#606060"/>
<path d="M14.7189 0.213229C14.3541 -0.0867287 13.8243 -0.0682992 13.482 0.256268L2.50677 10.6391C2.32466 10.8116 2.21928 11.0498 2.2143 11.3008C2.20933 11.5515 2.30536 11.7937 2.4809 11.973L11.0242 20.7033L12.3615 19.3947L4.48354 11.3444L14.1683 2.18256L15.8067 3.52923L16.995 2.08407L14.7189 0.213229Z" fill="#606060"/>
</g>
<defs>
<clipPath id="clip0_2_96">
<rect width="28" height="28" fill="white"/>
</clipPath>
</defs>
</svg>
