<svg width="22" height="22" viewBox="0 0 22 22" fill="none" xmlns="http://www.w3.org/2000/svg">
<path fill-rule="evenodd" clip-rule="evenodd" d="M11.2525 16.3282C10.8987 16.1422 10.476 16.1422 10.1222 16.3282L6.58363 18.1886C5.69266 18.657 4.65132 17.9004 4.82148 16.9083L5.4973 12.968C5.56487 12.574 5.43426 12.172 5.14802 11.893L2.28522 9.10247C1.56441 8.39985 1.96216 7.17569 2.9583 7.03094L6.91459 6.45606C7.31016 6.39858 7.65211 6.15014 7.82902 5.79169L9.59832 2.20669C10.0438 1.30403 11.331 1.30403 11.7765 2.20669L13.5458 5.79169C13.7227 6.15014 14.0646 6.39858 14.4602 6.45606L18.4165 7.03094C19.4126 7.17569 19.8104 8.39985 19.0896 9.10247L16.2268 11.893C15.9405 12.172 15.8099 12.574 15.8775 12.968L16.5533 16.9083C16.7234 17.9004 15.6821 18.657 14.7911 18.1886L11.2525 16.3282Z" fill="#FFC567"/>
</svg>
