<svg width="142" height="192" viewBox="0 0 142 192" fill="none" xmlns="http://www.w3.org/2000/svg">
<rect width="142" height="192" fill="#25CED1"/>
<rect opacity="0.1" x="70" y="107.637" width="148.85" height="148.85" rx="10" transform="rotate(-30 70 107.637)" fill="white"/>
<rect opacity="0.2" x="83.1187" y="69.6163" width="125.347" height="125.347" rx="10" transform="rotate(-20 83.1187 69.6163)" fill="white"/>
<path d="M34.0519 45.0114C34.0519 45.0114 28.4466 51.717 34.0519 56.8448C39.6572 61.9725 34.0519 68.6781 34.0519 68.6781" stroke="white" stroke-width="2.8" stroke-linecap="round" stroke-linejoin="round"/>
<path d="M34.0519 68.6783C34.0519 68.6783 28.4466 75.3839 34.0519 80.5116C39.6572 85.6394 34.0519 92.345 34.0519 92.345" stroke="white" stroke-width="2.8" stroke-linecap="round" stroke-linejoin="round"/>
<path d="M34.0519 21.345C34.0519 21.345 28.4466 28.0505 34.0519 33.1783C39.6572 38.3061 34.0519 45.0116 34.0519 45.0116" stroke="white" stroke-width="2.8" stroke-linecap="round" stroke-linejoin="round"/>
</svg>
